<mxfile host="app.diagrams.net" agent="Mozilla/5.0 (Windows NT 10.0; Win64; x64; rv:144.0) Gecko/20100101 Firefox/144.0" version="28.2.7">
  <diagram name="Страница — 1" id="gY2O-qyHXz5owjPsCHkH">
    <mxGraphModel dx="1188" dy="656" grid="1" gridSize="10" guides="1" tooltips="1" connect="1" arrows="1" fold="1" page="1" pageScale="1" pageWidth="827" pageHeight="1169" math="0" shadow="0">
      <root>
        <mxCell id="0" />
        <mxCell id="1" parent="0" />
        <mxCell id="5JC2hDjhxfH2RwqzCJOT-5" value="&lt;div&gt;abstract person&lt;/div&gt;&lt;div&gt;&lt;br&gt;&lt;/div&gt;" style="swimlane;fontStyle=1;align=center;verticalAlign=top;childLayout=stackLayout;horizontal=1;startSize=26;horizontalStack=0;resizeParent=1;resizeParentMax=0;resizeLast=0;collapsible=1;marginBottom=0;whiteSpace=wrap;html=1;" parent="1" vertex="1">
          <mxGeometry x="300" y="20" width="180" height="250" as="geometry" />
        </mxCell>
        <mxCell id="5JC2hDjhxfH2RwqzCJOT-6" value="&lt;div&gt;-name: String&lt;/div&gt;&lt;div&gt;-surname: String&lt;/div&gt;&lt;div&gt;-age: int&lt;/div&gt;&lt;div&gt;-gender: String&lt;/div&gt;" style="text;strokeColor=none;fillColor=none;align=left;verticalAlign=top;spacingLeft=4;spacingRight=4;overflow=hidden;rotatable=0;points=[[0,0.5],[1,0.5]];portConstraint=eastwest;whiteSpace=wrap;html=1;" parent="5JC2hDjhxfH2RwqzCJOT-5" vertex="1">
          <mxGeometry y="26" width="180" height="94" as="geometry" />
        </mxCell>
        <mxCell id="5JC2hDjhxfH2RwqzCJOT-7" value="" style="line;strokeWidth=1;fillColor=none;align=left;verticalAlign=middle;spacingTop=-1;spacingLeft=3;spacingRight=3;rotatable=0;labelPosition=right;points=[];portConstraint=eastwest;strokeColor=inherit;" parent="5JC2hDjhxfH2RwqzCJOT-5" vertex="1">
          <mxGeometry y="120" width="180" height="8" as="geometry" />
        </mxCell>
        <mxCell id="5JC2hDjhxfH2RwqzCJOT-8" value="&lt;div&gt;+GetName(): string&lt;/div&gt;&lt;div&gt;+SetName(N:String): void&lt;/div&gt;&lt;div&gt;+GetSurname(): string&lt;/div&gt;&lt;div&gt;+SetSurname(S:string):void&lt;/div&gt;&lt;div&gt;+GetAge(): int&lt;/div&gt;&lt;div&gt;+SetAge(A:int): void&lt;/div&gt;&lt;div&gt;+GetGender():String&lt;/div&gt;&lt;div&gt;+SetGender(G:String): void&lt;/div&gt;" style="text;strokeColor=none;fillColor=none;align=left;verticalAlign=top;spacingLeft=4;spacingRight=4;overflow=hidden;rotatable=0;points=[[0,0.5],[1,0.5]];portConstraint=eastwest;whiteSpace=wrap;html=1;" parent="5JC2hDjhxfH2RwqzCJOT-5" vertex="1">
          <mxGeometry y="128" width="180" height="122" as="geometry" />
        </mxCell>
        <mxCell id="v99KTuT6lKcqQnEKjUZW-5" value="employee" style="swimlane;fontStyle=1;align=center;verticalAlign=top;childLayout=stackLayout;horizontal=1;startSize=26;horizontalStack=0;resizeParent=1;resizeParentMax=0;resizeLast=0;collapsible=1;marginBottom=0;whiteSpace=wrap;html=1;" vertex="1" parent="1">
          <mxGeometry x="180" y="360" width="150" height="210" as="geometry" />
        </mxCell>
        <mxCell id="v99KTuT6lKcqQnEKjUZW-6" value="&lt;div&gt;-post: String&lt;/div&gt;&lt;div&gt;-Cab: cabinet&lt;/div&gt;&lt;div&gt;-agreement: contract&lt;/div&gt;&lt;div&gt;-speciality: String&lt;/div&gt;" style="text;strokeColor=none;fillColor=none;align=left;verticalAlign=top;spacingLeft=4;spacingRight=4;overflow=hidden;rotatable=0;points=[[0,0.5],[1,0.5]];portConstraint=eastwest;whiteSpace=wrap;html=1;" vertex="1" parent="v99KTuT6lKcqQnEKjUZW-5">
          <mxGeometry y="26" width="150" height="104" as="geometry" />
        </mxCell>
        <mxCell id="v99KTuT6lKcqQnEKjUZW-7" value="" style="line;strokeWidth=1;fillColor=none;align=left;verticalAlign=middle;spacingTop=-1;spacingLeft=3;spacingRight=3;rotatable=0;labelPosition=right;points=[];portConstraint=eastwest;strokeColor=inherit;" vertex="1" parent="v99KTuT6lKcqQnEKjUZW-5">
          <mxGeometry y="130" width="150" height="8" as="geometry" />
        </mxCell>
        <mxCell id="v99KTuT6lKcqQnEKjUZW-8" value="&lt;div&gt;+GetPost(): String&lt;/div&gt;&lt;div&gt;+SwapCab(): cabinet&lt;/div&gt;&lt;div&gt;+GetContract(): contract&lt;/div&gt;&lt;div&gt;+GetSpeciality(): String&lt;/div&gt;&lt;div&gt;&lt;br&gt;&lt;/div&gt;" style="text;strokeColor=none;fillColor=none;align=left;verticalAlign=top;spacingLeft=4;spacingRight=4;overflow=hidden;rotatable=0;points=[[0,0.5],[1,0.5]];portConstraint=eastwest;whiteSpace=wrap;html=1;" vertex="1" parent="v99KTuT6lKcqQnEKjUZW-5">
          <mxGeometry y="138" width="150" height="72" as="geometry" />
        </mxCell>
        <mxCell id="v99KTuT6lKcqQnEKjUZW-9" value="" style="endArrow=block;endSize=16;endFill=0;html=1;rounded=0;entryX=0.5;entryY=1;entryDx=0;entryDy=0;exitX=0.5;exitY=0;exitDx=0;exitDy=0;" edge="1" parent="1" source="v99KTuT6lKcqQnEKjUZW-5" target="5JC2hDjhxfH2RwqzCJOT-5">
          <mxGeometry width="160" relative="1" as="geometry">
            <mxPoint x="270" y="350" as="sourcePoint" />
            <mxPoint x="420" y="330" as="targetPoint" />
          </mxGeometry>
        </mxCell>
        <mxCell id="v99KTuT6lKcqQnEKjUZW-10" value="Contract" style="swimlane;fontStyle=1;align=center;verticalAlign=top;childLayout=stackLayout;horizontal=1;startSize=30;horizontalStack=0;resizeParent=1;resizeParentMax=0;resizeLast=0;collapsible=1;marginBottom=0;whiteSpace=wrap;html=1;" vertex="1" parent="1">
          <mxGeometry x="340" y="646" width="160" height="130" as="geometry" />
        </mxCell>
        <mxCell id="v99KTuT6lKcqQnEKjUZW-11" value="&lt;div&gt;-DateOfAgree: String&lt;/div&gt;&lt;div&gt;-DateOfTerm: String&lt;/div&gt;" style="text;strokeColor=none;fillColor=none;align=left;verticalAlign=top;spacingLeft=4;spacingRight=4;overflow=hidden;rotatable=0;points=[[0,0.5],[1,0.5]];portConstraint=eastwest;whiteSpace=wrap;html=1;" vertex="1" parent="v99KTuT6lKcqQnEKjUZW-10">
          <mxGeometry y="30" width="160" height="50" as="geometry" />
        </mxCell>
        <mxCell id="v99KTuT6lKcqQnEKjUZW-12" value="" style="line;strokeWidth=1;fillColor=none;align=left;verticalAlign=middle;spacingTop=-1;spacingLeft=3;spacingRight=3;rotatable=0;labelPosition=right;points=[];portConstraint=eastwest;strokeColor=inherit;" vertex="1" parent="v99KTuT6lKcqQnEKjUZW-10">
          <mxGeometry y="80" width="160" height="8" as="geometry" />
        </mxCell>
        <mxCell id="v99KTuT6lKcqQnEKjUZW-13" value="&lt;div&gt;+IsTemporary(): bool&lt;/div&gt;&lt;div&gt;&lt;br&gt;&lt;/div&gt;" style="text;strokeColor=none;fillColor=none;align=left;verticalAlign=top;spacingLeft=4;spacingRight=4;overflow=hidden;rotatable=0;points=[[0,0.5],[1,0.5]];portConstraint=eastwest;whiteSpace=wrap;html=1;" vertex="1" parent="v99KTuT6lKcqQnEKjUZW-10">
          <mxGeometry y="88" width="160" height="42" as="geometry" />
        </mxCell>
        <mxCell id="v99KTuT6lKcqQnEKjUZW-18" value="cabinet" style="swimlane;fontStyle=1;align=center;verticalAlign=top;childLayout=stackLayout;horizontal=1;startSize=26;horizontalStack=0;resizeParent=1;resizeParentMax=0;resizeLast=0;collapsible=1;marginBottom=0;whiteSpace=wrap;html=1;" vertex="1" parent="1">
          <mxGeometry x="20" y="650" width="160" height="160" as="geometry" />
        </mxCell>
        <mxCell id="v99KTuT6lKcqQnEKjUZW-19" value="&lt;div&gt;-Number: int&lt;/div&gt;&lt;div&gt;-capacity: int&lt;/div&gt;&lt;div&gt;-free: bool&lt;/div&gt;" style="text;strokeColor=none;fillColor=none;align=left;verticalAlign=top;spacingLeft=4;spacingRight=4;overflow=hidden;rotatable=0;points=[[0,0.5],[1,0.5]];portConstraint=eastwest;whiteSpace=wrap;html=1;" vertex="1" parent="v99KTuT6lKcqQnEKjUZW-18">
          <mxGeometry y="26" width="160" height="64" as="geometry" />
        </mxCell>
        <mxCell id="v99KTuT6lKcqQnEKjUZW-20" value="" style="line;strokeWidth=1;fillColor=none;align=left;verticalAlign=middle;spacingTop=-1;spacingLeft=3;spacingRight=3;rotatable=0;labelPosition=right;points=[];portConstraint=eastwest;strokeColor=inherit;" vertex="1" parent="v99KTuT6lKcqQnEKjUZW-18">
          <mxGeometry y="90" width="160" height="8" as="geometry" />
        </mxCell>
        <mxCell id="v99KTuT6lKcqQnEKjUZW-21" value="&lt;div&gt;+GetNumber(): int&lt;/div&gt;&lt;div&gt;+GetCapacity():int&lt;/div&gt;&lt;div&gt;+IsFree(): bool&lt;br&gt;&lt;br&gt;&lt;/div&gt;" style="text;strokeColor=none;fillColor=none;align=left;verticalAlign=top;spacingLeft=4;spacingRight=4;overflow=hidden;rotatable=0;points=[[0,0.5],[1,0.5]];portConstraint=eastwest;whiteSpace=wrap;html=1;" vertex="1" parent="v99KTuT6lKcqQnEKjUZW-18">
          <mxGeometry y="98" width="160" height="62" as="geometry" />
        </mxCell>
        <mxCell id="v99KTuT6lKcqQnEKjUZW-22" value="" style="endArrow=open;endFill=1;endSize=12;html=1;rounded=0;exitX=0.487;exitY=1;exitDx=0;exitDy=0;exitPerimeter=0;entryX=0.5;entryY=0;entryDx=0;entryDy=0;" edge="1" parent="1" source="v99KTuT6lKcqQnEKjUZW-8" target="v99KTuT6lKcqQnEKjUZW-10">
          <mxGeometry width="160" relative="1" as="geometry">
            <mxPoint x="290" y="600" as="sourcePoint" />
            <mxPoint x="450" y="600" as="targetPoint" />
          </mxGeometry>
        </mxCell>
        <mxCell id="v99KTuT6lKcqQnEKjUZW-24" value="" style="endArrow=open;endFill=1;endSize=12;html=1;rounded=0;exitX=0.48;exitY=1.028;exitDx=0;exitDy=0;exitPerimeter=0;entryX=0.5;entryY=0;entryDx=0;entryDy=0;" edge="1" parent="1" source="v99KTuT6lKcqQnEKjUZW-8" target="v99KTuT6lKcqQnEKjUZW-18">
          <mxGeometry width="160" relative="1" as="geometry">
            <mxPoint x="200" y="630" as="sourcePoint" />
            <mxPoint x="360" y="630" as="targetPoint" />
          </mxGeometry>
        </mxCell>
        <mxCell id="v99KTuT6lKcqQnEKjUZW-26" value="&lt;div&gt;1..1&lt;/div&gt;" style="text;html=1;whiteSpace=wrap;strokeColor=none;fillColor=none;align=center;verticalAlign=middle;rounded=0;" vertex="1" parent="1">
          <mxGeometry x="240" y="580" width="60" height="30" as="geometry" />
        </mxCell>
        <mxCell id="v99KTuT6lKcqQnEKjUZW-27" value="&lt;div&gt;1..1&lt;/div&gt;" style="text;html=1;whiteSpace=wrap;strokeColor=none;fillColor=none;align=center;verticalAlign=middle;rounded=0;" vertex="1" parent="1">
          <mxGeometry x="390" y="610" width="60" height="30" as="geometry" />
        </mxCell>
        <mxCell id="v99KTuT6lKcqQnEKjUZW-28" value="&lt;div&gt;1..*&lt;/div&gt;" style="text;html=1;whiteSpace=wrap;strokeColor=none;fillColor=none;align=center;verticalAlign=middle;rounded=0;" vertex="1" parent="1">
          <mxGeometry x="170" y="570" width="60" height="30" as="geometry" />
        </mxCell>
        <mxCell id="v99KTuT6lKcqQnEKjUZW-29" value="&lt;div&gt;1..1&lt;/div&gt;" style="text;html=1;whiteSpace=wrap;strokeColor=none;fillColor=none;align=center;verticalAlign=middle;rounded=0;" vertex="1" parent="1">
          <mxGeometry x="120" y="620" width="60" height="30" as="geometry" />
        </mxCell>
      </root>
    </mxGraphModel>
  </diagram>
</mxfile>
